<svg width="228" height="21" fill="none" xmlns="http://www.w3.org/2000/svg"><path d="M.9 0h27.39v5.49H17.31V21h-5.46V5.49H.9V0zm59.599 5.49h-21.93v1.83h21.93v5.49h-21.93v2.73h21.93V21h-27.39V0h27.39v5.49zM87.218 0h5.49v21h-5.49v-8.19h-16.44V21h-5.46V0h5.46v7.32h16.44V0zm35.209 0h7.95v21h-5.46V6.6l-8.49 14.4h-4.95l-8.49-14.4V21h-5.46V0h7.95l8.46 14.43L122.427 0zm36.067 21l-1.89-5.46h-15.36l-1.92 5.46h-5.91l7.29-21h16.44l7.29 21h-5.94zm-15.36-10.95h11.55l-1.59-4.56h-8.37l-1.59 4.56zm53.509-3.63c0 2.34-1.26 4.38-3.15 5.49l3.15 9.09h-5.91l-2.85-8.19h-14.97V21h-5.46V0h22.8c3.54 0 6.39 2.88 6.39 6.42zm-23.73-.93v1.83h17.34c.51 0 .93-.42.93-.9 0-.51-.42-.93-.93-.93h-17.34zM199.662 0h27.39v5.49h-10.98V21h-5.46V5.49h-10.95V0z" fill="#F2EBE5"/></svg>