<svg width="228" height="21" viewBox="0 0 228 21" fill="none" xmlns="http://www.w3.org/2000/svg">
<path d="M0.9 -1.43051e-06H28.29V5.49H17.31V21H11.85V5.49H0.9V-1.43051e-06ZM60.499 5.49H38.569V7.32H60.499V12.81H38.569V15.54H60.499V21H33.109V-1.43051e-06H60.499V5.49ZM87.218 -1.43051e-06H92.708V21H87.218V12.81H70.778V21H65.318V-1.43051e-06H70.778V7.32H87.218V-1.43051e-06ZM122.427 -1.43051e-06H130.377V21H124.917V6.6L116.427 21H111.477L102.987 6.6V21H97.527V-1.43051e-06H105.477L113.937 14.43L122.427 -1.43051e-06ZM158.494 21L156.604 15.54H141.244L139.324 21H133.414L140.704 -1.43051e-06H157.144L164.434 21H158.494ZM143.134 10.05H154.684L153.094 5.49H144.724L143.134 10.05ZM196.643 6.42C196.643 8.76 195.383 10.8 193.493 11.91L196.643 21H190.733L187.883 12.81H172.913V21H167.453V-1.43051e-06H190.253C193.793 -1.43051e-06 196.643 2.88 196.643 6.42ZM172.913 5.49V7.32H190.253C190.763 7.32 191.183 6.9 191.183 6.42C191.183 5.91 190.763 5.49 190.253 5.49H172.913ZM199.662 -1.43051e-06H227.052V5.49H216.072V21H210.612V5.49H199.662V-1.43051e-06Z" fill="#F2EBE5"/>
</svg>
