<svg width="24" height="24" fill="none" xmlns="http://www.w3.org/2000/svg"><path fill-rule="evenodd" clip-rule="evenodd" d="M12 1.25C6.063 1.25 1.25 6.063 1.25 12c0 1.48.3 2.894.843 4.18.142.337.238.565.303.74.065.178.074.243.075.26.007.094-.017.221-.18.827l-1.015 3.8a.75.75 0 00.918.918l3.799-1.017c.606-.162.733-.186.827-.18.017.002.082.011.26.076.175.065.403.16.74.303a10.72 10.72 0 004.18.843c5.937 0 10.75-4.813 10.75-10.75S17.937 1.25 12 1.25zm-3.027 5H8.88c-.48 0-.922-.002-1.357.197a2.23 2.23 0 00-.781.635 2.221 2.221 0 00-.447.902c-.098.466-.017.82.069 1.2l.012.053c.434 1.924 1.45 3.811 3.013 5.374 1.563 1.563 3.45 2.578 5.374 3.013l.052.012c.38.086.735.167 1.2.069a2.22 2.22 0 00.903-.447c.245-.196.49-.465.634-.781.2-.436.198-.878.198-1.358v-.092c0-.22-.007-.592-.15-.935a1.349 1.349 0 00-1.074-.834h-.006a136.58 136.58 0 00-1.57-.243 15.392 15.392 0 00-.456-.06 2.16 2.16 0 00-.346-.02c-.49.03-.88.228-1.181.435a7.6 7.6 0 00-.565.446c-.064.054-.121.103-.168.14l-.078.063c-.295.238-.443.357-.625.353-.182-.004-.315-.12-.582-.355a10.294 10.294 0 01-.967-.966c-.234-.267-.35-.4-.354-.583-.004-.182.115-.33.353-.625l.062-.077.14-.169a7.6 7.6 0 00.447-.564c.206-.302.405-.691.434-1.18a2.159 2.159 0 00-.019-.347c-.013-.12-.034-.272-.06-.456-.054-.368-.136-.887-.243-1.57v-.006A1.349 1.349 0 009.906 6.4c-.343-.143-.714-.15-.934-.15z" fill="currentColor"/></svg>